<mxfile host="app.diagrams.net" modified="2024-01-16T11:07:01.103Z" agent="Mozilla/5.0 (Windows NT 10.0; Win64; x64) AppleWebKit/537.36 (KHTML, like Gecko) Chrome/120.0.0.0 Safari/537.36 Edg/120.0.0.0" etag="WR0uckx8xzOrnK-I5fpN" version="22.1.18" type="device" pages="2">
  <diagram name="Page-1" id="hTL9N_EjLxV5XWXbWal4">
    <mxGraphModel dx="1822" dy="759" grid="1" gridSize="10" guides="1" tooltips="1" connect="1" arrows="1" fold="1" page="1" pageScale="1" pageWidth="850" pageHeight="1100" math="0" shadow="0">
      <root>
        <mxCell id="0" />
        <mxCell id="1" parent="0" />
        <mxCell id="lin1QoMYqOqNWPA89Fqz-15" style="edgeStyle=orthogonalEdgeStyle;rounded=0;orthogonalLoop=1;jettySize=auto;html=1;" parent="1" source="lin1QoMYqOqNWPA89Fqz-1" target="lin1QoMYqOqNWPA89Fqz-2" edge="1">
          <mxGeometry relative="1" as="geometry" />
        </mxCell>
        <mxCell id="lin1QoMYqOqNWPA89Fqz-1" value="Clover DX - ETL tool&amp;nbsp;&lt;br&gt;Runs on On-prem" style="rounded=0;whiteSpace=wrap;html=1;" parent="1" vertex="1">
          <mxGeometry x="100" y="280" width="140" height="110" as="geometry" />
        </mxCell>
        <mxCell id="lin1QoMYqOqNWPA89Fqz-16" style="edgeStyle=orthogonalEdgeStyle;rounded=0;orthogonalLoop=1;jettySize=auto;html=1;" parent="1" source="lin1QoMYqOqNWPA89Fqz-2" target="lin1QoMYqOqNWPA89Fqz-4" edge="1">
          <mxGeometry relative="1" as="geometry" />
        </mxCell>
        <mxCell id="lin1QoMYqOqNWPA89Fqz-2" value="Data Seers - Daily Transaction Monitoring System" style="rounded=0;whiteSpace=wrap;html=1;" parent="1" vertex="1">
          <mxGeometry x="300" y="280" width="140" height="110" as="geometry" />
        </mxCell>
        <mxCell id="lin1QoMYqOqNWPA89Fqz-4" value="Deco - reconciliation - ledger" style="rounded=0;whiteSpace=wrap;html=1;" parent="1" vertex="1">
          <mxGeometry x="490" y="280" width="140" height="110" as="geometry" />
        </mxCell>
        <mxCell id="lin1QoMYqOqNWPA89Fqz-5" value="Fintech" style="rounded=0;whiteSpace=wrap;html=1;" parent="1" vertex="1">
          <mxGeometry x="-210" y="220" width="220" height="250" as="geometry" />
        </mxCell>
        <mxCell id="lin1QoMYqOqNWPA89Fqz-6" value="Current" style="ellipse;whiteSpace=wrap;html=1;" parent="1" vertex="1">
          <mxGeometry x="-200" y="240" width="70" height="60" as="geometry" />
        </mxCell>
        <mxCell id="lin1QoMYqOqNWPA89Fqz-7" value="Mercury" style="ellipse;whiteSpace=wrap;html=1;" parent="1" vertex="1">
          <mxGeometry x="-70" y="240" width="70" height="60" as="geometry" />
        </mxCell>
        <mxCell id="lin1QoMYqOqNWPA89Fqz-8" value="Lively" style="ellipse;whiteSpace=wrap;html=1;" parent="1" vertex="1">
          <mxGeometry x="-200" y="390" width="70" height="60" as="geometry" />
        </mxCell>
        <mxCell id="lin1QoMYqOqNWPA89Fqz-9" value="Galileo" style="ellipse;whiteSpace=wrap;html=1;" parent="1" vertex="1">
          <mxGeometry x="-200" y="315" width="70" height="60" as="geometry" />
        </mxCell>
        <mxCell id="lin1QoMYqOqNWPA89Fqz-10" value="Big Query" style="text;html=1;strokeColor=none;fillColor=none;align=center;verticalAlign=middle;whiteSpace=wrap;rounded=0;" parent="1" vertex="1">
          <mxGeometry x="-140" y="180" width="80" height="30" as="geometry" />
        </mxCell>
        <mxCell id="lin1QoMYqOqNWPA89Fqz-11" value="?" style="ellipse;whiteSpace=wrap;html=1;" parent="1" vertex="1">
          <mxGeometry x="-70" y="315" width="70" height="60" as="geometry" />
        </mxCell>
        <mxCell id="lin1QoMYqOqNWPA89Fqz-12" value="?" style="ellipse;whiteSpace=wrap;html=1;" parent="1" vertex="1">
          <mxGeometry x="-70" y="390" width="70" height="60" as="geometry" />
        </mxCell>
        <mxCell id="lin1QoMYqOqNWPA89Fqz-13" style="edgeStyle=orthogonalEdgeStyle;rounded=0;orthogonalLoop=1;jettySize=auto;html=1;entryX=-0.006;entryY=0.593;entryDx=0;entryDy=0;entryPerimeter=0;" parent="1" source="lin1QoMYqOqNWPA89Fqz-5" target="lin1QoMYqOqNWPA89Fqz-1" edge="1">
          <mxGeometry relative="1" as="geometry" />
        </mxCell>
        <mxCell id="lin1QoMYqOqNWPA89Fqz-17" value="" style="editableCssRules=.*;html=1;shape=image;verticalLabelPosition=bottom;labelBackgroundColor=#ffffff;verticalAlign=top;aspect=fixed;imageAspect=0;image=data:image/svg+xml,PHN2ZyB4bWxucz0iaHR0cDovL3d3dy53My5vcmcvMjAwMC9zdmciIHhtbG5zOnY9Imh0dHBzOi8vdmVjdGEuaW8vbmFubyIgd2lkdGg9IjIwLjAwMTA0NTIyNzA1MDc4IiBoZWlnaHQ9IjIwLjAwMTA0NTIyNzA1MDc4IiBmaWxsLXJ1bGU9ImV2ZW5vZGQiIHZpZXdCb3g9IjAgMCAyMC4wMDEwNDUyMjcwNTA3OCAyMC4wMDEwNDUyMjcwNTA3OCI+JiN4YTsJPHN0eWxlIHR5cGU9InRleHQvY3NzIj4mI3hhOwkuc3Qwe2ZpbGw6I2FlY2JmYTt9JiN4YTsJLnN0MXtmaWxsOiM2NjlkZjY7fSYjeGE7CS5zdDJ7ZmlsbDojNDI4NWY0O30mI3hhOwk8L3N0eWxlPiYjeGE7CTxwYXRoIGNsYXNzPSJzdDAiIGQ9Ik00LjczIDguODN2Mi42M2E0LjkxIDQuOTEgMCAwIDAgMS43MSAxLjc0VjguODN6Ii8+JiN4YTsJPHBhdGggY2xhc3M9InN0MSIgZD0iTTcuODkgNi40MXY3LjUzQTcuNjIgNy42MiAwIDAgMCA5IDE0YTggOCAwIDAgMCAxIDBWNi40MXoiLz4mI3hhOwk8cGF0aCBjbGFzcz0ic3QwIiBkPSJNMTEuNjQgOS44NnYzLjI5YTUgNSAwIDAgMCAxLjctMS44MlY5Ljg2eiIvPiYjeGE7CTxwYXRoIGNsYXNzPSJzdDIiIGQ9Ik0xNS43NCAxNC4zMmwtMS40MiAxLjQyYS40Mi40MiAwIDAgMCAwIC42bDMuNTQgMy41NGEuNDIuNDIgMCAwIDAgLjU5IDBsMS40My0xLjQzYS40Mi40MiAwIDAgMCAwLS41OWwtMy41NC0zLjU0YS40Mi40MiAwIDAgMC0uNiAwIi8+JiN4YTsJPHBhdGggY2xhc3M9InN0MSIgZD0iTTkgMGE5IDkgMCAxIDAgMCAxOEE5IDkgMCAxIDAgOSAwbTAgMTUuNjlhNi42OCA2LjY4IDAgMCAxIC4wMDctMTMuMzYgNi42OCA2LjY4IDAgMCAxIDQuNzI3IDExLjQwM0E2LjY4IDYuNjggMCAwIDEgOSAxNS42OSIvPiYjeGE7PC9zdmc+;" parent="1" vertex="1">
          <mxGeometry x="-170" y="175" width="40" height="40" as="geometry" />
        </mxCell>
        <mxCell id="lin1QoMYqOqNWPA89Fqz-18" value="" style="shape=image;verticalLabelPosition=bottom;labelBackgroundColor=default;verticalAlign=top;aspect=fixed;imageAspect=0;image=data:image/png,iVBORw0KGgoAAAANSUhEUgAAAP8AAABJCAYAAADym/CiAAAAAXNSR0IArs4c6QAAAARnQU1BAACxjwv8YQUAAAAJcEhZcwAAEnQAABJ0Ad5mH3gAABW2SURBVHhe7Z0JnE1lH8f/s+8LYyvaLJESQposUYgSyTLILrs3vclQ1rJUpFJ5bSFrElLayEhkr9CipCQlW8NsZu7cWe57fs99jnvOuefcuft7e+/z/bifOf8z47oz5vc8//W5ITfd/qCFBAJB0BHKPwoEgiBDiF8gCFKE+AWCIEWIXyAIUoT4BYIgRYhfIAhShPgFgiBFiF8gCFKE+AWCIEWIXyAIUoT4BYIgRYhfIAhShPgFgiBFiF8gCFKE+AWCIEWIXyAIUgL+MI+I6pEUUSuSQpPCKDQhlD1C4sMoLDGULAUWKr1SQqU50se8ErLkllLJ+SIyHSkki6mUP4NAINAjIMUfEhtKMamxFNUkhsLKh/G7rlH4jYkKD+WT+VczvyMQCJQElPjDKoRR7P0JFFU/mt/xnJJLJVSw+wqZ9uTzOwKBAASM+KNujaKE/uW45X2KTpgpe8klbgkEgoBI+IUmh/lU+AB5g7iOCdwSCAQBIf6YZrH8yrdEp8ZSSEQItwSC4CYgxB92TTi/8i0QPvIKAoEgQMQfEuLH3Thc7PwCAQgI8Rf/VcSvfEyJ9OdcMTcEguAmIMRv2pdPVOj7okPBrjyyFAV0T5NA4DcCQvyoxV+en0mlBb7ryivYk09XPsnjlkAg8FudH+25UXdEU/h1kRQaG0rmHwrIdMikasMNqxJOScPLs897E9PeK5S3OZdbViJuimRVhpDYECo+X0JFxwvJ/FMh/6zvCAsLo0YNbqGWd98hfaxLVSqlUEpKEkVGRNDfmVl07kImfXfsBH257zDtPXCUCkz6r+nelnfyK3t27DrIrwTeoFxyAtWueSO39Cm1WOjS5Ww6f+ES5eZd4XcdUy45kerXu5lbVn76+RSdO/83t5zjtltqUIUK6lL5zt1f8Stj/CL+yFujKbF/MrfU5G3IIdNBW/dd+LURlDSiPIVEeScxh+fGvyGD2YDEgeUovFoEv2MD4s9Zdplb3gWiT+vSjkYPTaMqlSvwu47JzzfR0tWbaclbmyjvirpDcfig7pQ+pj+3bLz34Q4aO/Flbgm8QZtWTWnxvMncKhssAt/+cIIOH/2J1r+3jc5fNG4uG/d4fxoxuDu3iD7dvodGjn2eW85x8uiH/MrKjDlLaNnq97lljM/dfog5sY++8EF8t0RWf5dB8i97YaZXBnPQ35+30Sb8kLhQSh6Roit8EFknihJ6JXHLezSoV5u2b15IMyaPclr4IDY2mv41tCft+mQp3X9vKr8rCHTKl0uiVs0b079H9aE921bQG3MmUI2bqvHPqpnz2gr6TlooZNq3aUZ90h7kVtk8MfJRfmXl892HnBI+8Ln44zolSNseNwyI76JZAM4UU/YiabX0IAkI4ee+k0XEn8IqfCmkKKPOH9UwhoUE3mLYwK707so5dMP11/A7rpOclEALXpnIdnuB/7FILr2SE7+epgNffa96/PzL77rufmhoCD3Qrjlt3bSApk4YRrEx9nMr06WdWsmU9CGGi4WSpo1vo8eH9eKWlemz1c/lCJ+KP7xSOBvJdQYsAJjik8ECkIVefDcWAPO3+sIPk16PM0TfZXsdnjCo78M0/omBFBbq+Y85KzuXreoC/6PtQ5n7xkrqNXiC6tG+6yiq3yyNmrTuQ4+nv8jCr6IiW1kZi0D/Xg/RioXPMY9OyVeHj9G8hWu5JekmPJwmpw/lljHar5kyawGdOv0Xt8rGp+KPSnVNRAndkyj6ToUHcLqIspZeIosLbQCFkvBzVquFjxyCs8IH2P1DYjzLObRq0Zgmjh3MLccgJjz87U+UnaNfjYDwez/2NB0/cYrfEfgT7c7viMxLWfTh1t0s79L0vr60ZMUm1d9Hknf14pksB6Rk3oK19M2RH7lFLCEMr9GIiU89RnVrV+cW0dYd+2j1Ox9xyzl8K/7bXR/Nje+q8QBOFVH2kkyn6vPmY4WUt0YSPgdVA+z48EBcJaK2+2PFMdFR9PzUxx12LmK17zN0ItW7uzultulHXfs+RQ1b9GS/MKPHvUB/nDnPvg4LwqNDnmFZYME/Cyzaz7+8jP3f5uTaQgLkgEYqknwyWvcfXmO9W2txywY2lsGSVylz5UoBzXDB3ZfxmfiR6AtNcKOPXtJLQrckVhaUwQKQszzL4QIA4eeslL6GfwmEj7KhKzu+kui67sf9Qwd0pcoVy3PLnmWrNlPawPGslIf/OCUX/75MH2/7ktp0HkavLXqbuZQ/Hv+Nf9b7ICSpdm1luqN+HbquamW7HSmQQLyM3e7WOjUoPs4/w2De4Mh3x6n34KeppKSE3yF6fERvuumGqtyycvT7n+ml11dyywrifyXRUZE0NX0Yt6xg0Thz9gK3nMdnpb6YZnEU19mDEVrpVSFuR+JOJqJmFCUNLmeXQDQfl4QvLQ5Uav1Wrgq/ivsDQ6VZpXRplhs/UGm3/2rnGlbD1cOdUo4enpT64uJiqMfDbVmvQOOGdSlK+oWSQZz69dEf6fNdh1iZSi8UqV3rRmrf5m5uqXl382f019mL3FKTlBhPAx7txC01Rn8PO1/3zm2oZbNGdH21Kvyuld9+P0M7pNe58u0tVz0lPRBjD+n/CLdsIEn3yWd76NprKlLftI7M1Uaibcunu2jc5Ff4V9mX+ob/ewZt27GfW84zd+aT1KXjvdwi9vOdMO01btlY8+YsSm1yO7eIXl+8jl6Zv5pdo2LUu1sHdg3wWseMn80t1/CZ+OMfSaTouzxfnXPXZUsLgG13jKgTRYl9k6+O5rId/y1bbR6xetLwFAr3wqRg5uTzZHEx4djw9jq0cdVL3FKDWn3LDoOZO+gp7ogfuzrczeHSA6FJWRQWmlnM+tqidVRcbEteYWE7kLGSJaa0zH1jFc1f8g631HSXFpwXnx3DLRuXs3KkcKef6t9IiI+j1+eMZ4IsC8TUi5ZvoNnzVvA7aipVKE/7pder5aNtu2nRsg20YuEM1sgjs/GDDJ+Iv2b162jbewu4Zf19aNA8jUr5piUD7+bD9bZFYcP72yl9yqv0YLsW7Gciczkrl9p3Hcm8RXfwndtfRb+W7ioJPdUhQNFPhXR5zkW6siWHNeTYCX+IFON7aUQ4rKLrz4N4zIjlaz7wivDdAUJFogm1Z2eED+ARjB7akzaunMPcTRmIFQkmPYw8AtChbTN+pQa/3Erho7S5YdUcp4QP4G1hMZw0Tu0iyxilXuJiYujNN6aqhA9cSfC5wi8n/2DeigxCF3hRWo4dP8lyBQDe0HMvLmYL7uTx6u8PzTzuCh/4TPwh8d576oS0ZIpUJA/hkhfszle144ZES67+UOMGHndwJ2dR86br+JU9GTsP8Cv/M33iCFYXdge43nNnjuWWlbc3fMqv1CAer3pNJW7ZQKjRwkDMyudCSWzhKxOpVvXr+R3nGdSnM913j33bs1HiFQs1vAItjhK1nrJ772F+ZaXGjfr1fHhc4LnZi5iHMCV9qOq1btqyg3l5nuA78XupPZchPRW6BJFENCKhVyKFV/XOji8T4ka531Gi75gPE3eOQHY57ZH7uWUPYl80qjiqKGDXRteazL6D3xommR68vwW/stGudapuv8P+r75T1aZRC7+zkf0ihVkHJElrNHiIVUX6DZ+smwidOWW0KocRaPx1Tp3XqFwphV/Z06HbaBZeIFzq/GArftdaGsau7yk+E39opPdXz0iDU32x0ETe4n5pzoiQaNd3/iTJZdUDAzpK19afPCm5+nqgI+3JZ+ayBhVUFR7oPpqVGY36DZ4c3ZdfWV3jNes/4ZYaPdffyOVX7vrwDsaO7sctGxlfHKSBI6fSoW9+YP8uXh8Wg+4DxtklCbE79unxALesaGNqLRikmfr8QpaRx2Phsnf5Z6x4Mwz4O1PtpickxPEre9DXgUoMdn0lKOt5I3z0mfgtJd6PmyyX9cWDpJyriTmnKOOXRg8j4SDOhkvrbxDPpjatzy0bEESvQU/T5o8+53esoMyIujSSfVowPabMuL+zaavuggZPo6Jiygz5gnuaNeKWDeQOkG2Xad60gV33G5gmCbOk1H7WA4NPm7ZkcMtG6xZN+JUVR148vJ77HxlFq9Z9yLwQPH797U/+WSveDAO0+ZayFpbJ6UPYoiizbuNWlqj0Br4Tv5dn84tOm6lgv7omriR3fTa/8h6WfNe/B0x0GVGtqrpU5Q+aSYLSc7cRLyKxpMfJU3/SSkkMerRIbcivrOLdbpDH6Khw/dvem0oREfYhGeJW5eLR7K4G/MoGauPdHm5DY0b01n3UrWPrcpO5o8Et/MqKI3298Opyp0dwvUFKefWQW47BZgEG9O5EbVvfxS2iP/86TzNesrr7D7VvyT56gs/EX1rgvZ24+BTO3Fe7S4j/keSTMX9nopy13l0ASvNd/x7OamI6JXq7n68xWnDgSjvCqJRVVXJDlRgl/jq0bc6vpGuDCsCa9R/zKyvVqqqfG6A8OWa4JHSDh965BvA0Eh240zLoadAm4PTwptvf4Pba/MrKccnz0KNWjevZrq8EcT68HSwK815Mt1tIXMVn4i+5YOtm8gR092UtlYTP3fqwcmFU7skKlPxECqU8V4limtt6CcxHCigXff1eovSC62cLomvPiEGPdvZ7B522jCVjFJ7IYFfXI6W8euT5y/1HdBN/OLAErj+E2ErjhoODX39vN4SCJiBvgXJhWeDwFGXXna/Ba1J6Tvi3v1b08ytBnK8MNxCWYEFGFUQuaWq7/1zFZ+IvdkM4WtiOvzjzqvBxGlDSSHXnXlynRIppbfulwWBP7gppsXAjXldiMVuoJMd1t3/3vsO68SnAWK+jYQ1fgEYQPapeU5Ff6WP0ee2igF1Rb/fHL247yWVt3bKJqkdA5u2N9n+nrAXJFZQNSEa5Fh9W9HQZPSRNtfjjd0Uvt4LDPZQhEMKw6XPeZNeTJMHL389DHe6hHl3asWt38N3Of8azzDbeYBOuvoU/DRM+jviSPmqJ6xBPMS1tbl7hD4WUs8qzEKD4d/cWr/wCE3281TghgyYbR0dwKUGLpzLmc4czUpyoxyOd7uNX+jzcsTW/UvPHn+f4lY0Nm7frZtTh+ivdfxnE2MpEnwx2Yi143lubdqXq9Tu69IBgvIU3En7o2uvf+yFuWcEJTVqQLMXpPkpmSMKXcyNbPvmCfZSZMn4om8lwB5+Jn707rpu7b9FJM+VIrr48yIOjt9iOn2LsMuOtuJQHgph/MFmP5HKz6mD+2f3z/DCcYeROIvm2aN4kdghDZKR+3wKyu+ljBtCqxTNp0auTqF+vjvwzrgO3XI+7GtejR7vbesSVoJ1V2YOuZNfeb/iVjQt/X9JN/DVtUo/aSs+lZf17n5HZbL+46r1W7HK9DV6njNEchbfwNOavf9vNtHbp86pdHyLed+hbbtnQxvkYAtv5pe08PnRDvv/RTm5Zh52cmf3Xw2fip2ILE7GrFEmiy35TEq309wGEj6O3EOuXhfZEIHQAZmPgx40FAK/DXTBksmCpulasBAsAjl86kLGKpk8cqcpevzxrLB3csZqGD+p21b2bNmE4jVXU2F0BbvoegwVg+qRRNEpyReXyEzLyaAbCgqPH9z/+ajhAs07Hjcf3qddwo030yWR8cUD3wNJnxg5mzT9a4NrjZ3bw89VszsHZtmV/gUUcc/ebVs9VJSDxfzLthUXcsvHUv/qx2RAZ1PlnvGR195Vgik/pJWGxHmgwMOUInx7gGd04huJ7OH8mHhO+Qqw4iKPcqJQyj97SkvtuNhUeUgwD3RxFSQOSpd8W59y34rPFlPWKayeoaoFwl81/1un+dGdAjXfi9DfYTuTKYA/ac99faxtUcZfBo581PE0IrvG+7St022WV4ByDHgPSuWUPFiOjhe7EydOUsfMgFZrNFB0VxUITZUclTj6ePnuxXUiBE5L3fmY/9IPmnrvbDeCWMWgZXvLaFG6VPdiDJCvicVQjtF4JSsHoVNT2EtzdtD6bvVCC8x6MEsh4/nkvjOOWFXQEunLgi+92fgnTNyank2baXVo+iMNV4QN2HoDiQBCtN1EWBV94XvdFrDpy7Cz6+sgxfsdz4Cq744LigEhnD3U0Au6mo2PE8LrWGnT8KTEqDcosl14nBmD0QKYbHhFEhcSptpUaIn999gTVCTe+oGN7SdgKbw2PZ58ezjwmTO19/cXbzFvTCv/302epe/90O+EDbRcfugwdVY4QNmAMWomr2X+fih8xf8HWstsQWYJOEZ9D+InD3D+Igx0IgiPBGimmATV5BCNKLharRog9ATXZngMnGI64OguqBy++ulxyFRfyO66DGvF/3lzPLdd4a+0HNGHaPG4ZA8/EUSstEn1ldachYTpo1DR2HJY7TJ4537B5yV20CT80MCl7DfDo27MjS85ibFcPHLHVvtso1VSfDJJ2N9e8gVtWjMaTleCwzrPnbB5q6p31aeRjPbhVNr4Vv4RJcr8xc2/E1dIcJzRGEv5Q74zlxqclq8aBkYRkC4BBK7ClwEJ5Xu4UhHAx4w6XzJk3UlCC3RRiua/TMFq0fCO/6z5IRMLldDYTjvi+77BJbKTUkahlkPhz5B1gTl4v0acFnWztuoxgB1U4C07LwXxCWZ6FO7jjbSF3gYTerLlL2RkOOFxTr6yHeB1NO0ochUVKMO2nPfpLmzdwhN/esQcHe8R2iGfiBsUXiqkg4woVHrbtsmwsV9rxvT2dh8YfLDIyocmhFNcxUXXGIDoE897PoVI3avuugPgbHW8Yb8X4qxII7M8z51hiDe+6gzqw0bw2Yn6jBh55FtwIJOKQ2MOR0jjJR1l1kE/y+WzHPlr1zscuDyPdVrem7lgteG/LDjqtUyp0BGYJenZtL/28Gl79eeE14ueCGH+/JLBPM/bS98d+YZ/TA4m3x/p14ZaN3Lx8lk0vCxy31emBe7ilj0X6v8uU4vkLFy+x5iWELs4sGnr5DWwWruDuc/hN/DJoyy3NK7EXWVQIJUP4XpzHV5KzKosJPJBAtrpSxXKsTRMiQyzozM7oTZCYvLZKJfY6IChMyRk1KQn+v/C7+I1IfKw8Rd7s2znsrP9cYl2DAoHADzG/MyAx52vhg4Suvm0GEQj+SQSE+CNuc+PIHDcIqxxOoU40CwkEwUBAiD/Uw3fHcYWwxID4lgWC/zkBoQQcyOkv3JnUEwj+HwkI8Zt/9E8WvuR8MZVe9t/8tkAQyASE+AuPmqxTgD4mV/Fe/QJBsBMwAXDuW5cpP8N7hzkoKfq9iLLnZ4oyn0CgIGDq/DJ4lxyM5UY1ir7aDeguRb+ZyXQgn3kWJLx9gUBFwIlfSUStSIqqHUXh1SOd6vxD12DRH0XsLb3Mx01+TSQKBP80Alr8Wqwn9uqUBaXvADP4FpMQu0DgLP8o8QsEAu8RMAk/gUDgX4T4BYIgRYhfIAhShPgFgiBFiF8gCEqI/guqcqgyiC2uOwAAAABJRU5ErkJggg==;" parent="1" vertex="1">
          <mxGeometry x="117.61" y="250" width="104.79" height="30" as="geometry" />
        </mxCell>
        <mxCell id="lin1QoMYqOqNWPA89Fqz-19" value="" style="image;aspect=fixed;html=1;points=[];align=center;fontSize=12;image=img/lib/azure2/databases/Azure_Database_PostgreSQL_Server.svg;" parent="1" vertex="1">
          <mxGeometry x="22" y="70" width="48" height="64" as="geometry" />
        </mxCell>
        <mxCell id="lin1QoMYqOqNWPA89Fqz-20" value="Postgres" style="text;html=1;strokeColor=none;fillColor=none;align=center;verticalAlign=middle;whiteSpace=wrap;rounded=0;" parent="1" vertex="1">
          <mxGeometry x="10" y="134" width="60" height="30" as="geometry" />
        </mxCell>
      </root>
    </mxGraphModel>
  </diagram>
  <diagram id="evy8HIlCFDRhFja7TRm9" name="Page-2">
    <mxGraphModel dx="1116" dy="759" grid="1" gridSize="10" guides="1" tooltips="1" connect="1" arrows="1" fold="1" page="1" pageScale="1" pageWidth="850" pageHeight="1100" math="0" shadow="0">
      <root>
        <mxCell id="0" />
        <mxCell id="1" parent="0" />
        <mxCell id="_RPkP1gwS6CLPZ-i384K-37" value="" style="rounded=0;whiteSpace=wrap;html=1;" vertex="1" parent="1">
          <mxGeometry x="300" y="1120" width="120" height="180" as="geometry" />
        </mxCell>
        <mxCell id="_RPkP1gwS6CLPZ-i384K-4" value="" style="group;strokeColor=default;" vertex="1" connectable="0" parent="1">
          <mxGeometry x="295" y="215" width="70" height="110" as="geometry" />
        </mxCell>
        <mxCell id="_RPkP1gwS6CLPZ-i384K-2" value="" style="image;aspect=fixed;html=1;points=[];align=center;fontSize=12;image=img/lib/azure2/general/Subscriptions.svg;" vertex="1" parent="_RPkP1gwS6CLPZ-i384K-4">
          <mxGeometry x="10.214615384615385" y="10" width="49.58" height="80" as="geometry" />
        </mxCell>
        <mxCell id="_RPkP1gwS6CLPZ-i384K-3" value="Subscription" style="text;html=1;strokeColor=none;fillColor=none;align=center;verticalAlign=middle;whiteSpace=wrap;rounded=0;" vertex="1" parent="_RPkP1gwS6CLPZ-i384K-4">
          <mxGeometry y="80" width="70" height="30" as="geometry" />
        </mxCell>
        <mxCell id="_RPkP1gwS6CLPZ-i384K-11" value="Dev&lt;span style=&quot;white-space: pre;&quot;&gt;&#x9;&lt;/span&gt;" style="text;html=1;strokeColor=none;fillColor=none;align=center;verticalAlign=middle;whiteSpace=wrap;rounded=0;" vertex="1" parent="1">
          <mxGeometry x="300" y="320" width="60" height="30" as="geometry" />
        </mxCell>
        <mxCell id="_RPkP1gwS6CLPZ-i384K-12" value="UAT" style="text;html=1;strokeColor=none;fillColor=none;align=center;verticalAlign=middle;whiteSpace=wrap;rounded=0;" vertex="1" parent="1">
          <mxGeometry x="415" y="320" width="60" height="30" as="geometry" />
        </mxCell>
        <mxCell id="_RPkP1gwS6CLPZ-i384K-13" value="Prod" style="text;html=1;strokeColor=none;fillColor=none;align=center;verticalAlign=middle;whiteSpace=wrap;rounded=0;" vertex="1" parent="1">
          <mxGeometry x="515.95" y="320" width="60" height="30" as="geometry" />
        </mxCell>
        <mxCell id="_RPkP1gwS6CLPZ-i384K-18" value="" style="shape=stencil(rVbdTuswDH6a3lqJncTxNT/vgcRgFWNDY3DOefvjUqXMobNA4q7rbMf+ftwMdPW6vXvZDBheT8fD0+bPeH/aDnQ9II777eY4nvRpoJuBrh4Ox83j8fC2v59/v9xNkdPT8+F9qvB3zksVcpiyMPyb3whB4I83t3PCbtyfJUQCYpNQCgS8nJChFhOfGVJxDgBMJj4VYKd+gGAHoARCl+MR0PaDOpFTn4HFxCsCMTr9KxzRDtwQW+9H421DAcSpTwWqdPFRLscnBsoWIEAnPpeeYGkHrsYXBOkAEvcA1Uu2AFGA7DAwJVQrCQSqTgI1RBYKCIqjOZ252BOmEtkFla1Ki6LksEzKgh2a9QRnaJVFsi0xQnZaUt1RN0MFdIxQm8+X+AAleMZJaEENkJyRQ1sLC83VFVKESNaYDMETKhRbXxHwdKe+DfYAbhXW58VedrEpfZ1i9ZUFdFlN6xoikL5+dQhWDWfp+qf0e/GVIVpN66opDsGCwHazqC+zYzMpIHZXJwF2JCrS76K8rON1jsOXz4FuD/R6qsB2/XKC4tAguX2OWkJF1wcSe6NVcVuquf8iiLbkMMdqZUuETuVZgdW5luoz4C5t+W5DKjeeOHIGtDDJsgLX7fDTm8g3EvTh8+LzMO52873p/P/+oqSv5ksW3fwH);lineShape=1;strokeColor=default;" vertex="1" parent="1">
          <mxGeometry x="774.851733096333" y="608.6939413690741" width="5.952668992928693" height="5.438910463313732" as="geometry" />
        </mxCell>
        <mxCell id="_RPkP1gwS6CLPZ-i384K-17" value="" style="group;strokeColor=default;" vertex="1" connectable="0" parent="1">
          <mxGeometry x="310" y="90" width="180.95" height="60" as="geometry" />
        </mxCell>
        <mxCell id="_RPkP1gwS6CLPZ-i384K-14" value="" style="sketch=0;outlineConnect=0;fontColor=#232F3E;gradientColor=none;fillColor=#232F3D;strokeColor=none;dashed=0;verticalLabelPosition=bottom;verticalAlign=top;align=center;html=1;fontSize=12;fontStyle=0;aspect=fixed;pointerEvents=1;shape=mxgraph.aws4.user;" vertex="1" parent="_RPkP1gwS6CLPZ-i384K-17">
          <mxGeometry x="140.95" y="13.73534811467307" width="33.89351786470837" height="33.89351786470837" as="geometry" />
        </mxCell>
        <mxCell id="_RPkP1gwS6CLPZ-i384K-16" value="" style="shape=image;verticalLabelPosition=bottom;labelBackgroundColor=default;verticalAlign=top;aspect=fixed;imageAspect=0;image=data:image/png,iVBORw0KGgoAAAANSUhEUgAAAJUAAACUCAMAAACtIJvYAAAAaVBMVEX///8AidYAg9QAhdUAh9Xz+PwAf9MUjdcAgdQAe9Ky0e6RuuaLuOa91/CEtOP6/P7m8frI4PTc6/g9ldnR5PWhx+qVwejt9Purzu1pq+FKnNyIu+Zhp+ArkdhRot4AcM92seMAdtBjn9z3wBtNAAAE8UlEQVR4nO2Y24KCOAyGaVpqiyJnQQRH5/0fclMOpUV09sZlL/JdzIBU+pOkf4NBQBAEQRAEQRAEQRAEQRAEQRAEQRAEQRDfIs33VrBB3oZ7S3glU83eEl5p5CEJknJvGT43gAorC+q9hTiEnRIHFNQ8H3tLWcgLYOqGB70Q2d5iZrIDZ4JjqErBeLu3molGCMb4CY+OwJiO9tYzcJEoSjB00LA1R8X/oODrTjGEX/G4lOYQLntrCtJ2EMWk2Wyu3BwKtXewSj4IGUNVYx7tyY40fNTBuPGDCJhz9oGkulzSr4kq9SRKGDtIxgSa0+Lz92IA+b3i+51EMW2Ck86Bwyr77A5nwOf4Vn/RqDlj9wRPL/MpBqv/lKAQRD8+yDdgc2xgaGEKGyr85Pbhe5EWtx6+tCRuc2xEYUKVceagP7SlLT8k6Ldfqffchmqs3CO4qj64Q8mgCyrFv9IjdrOKoYUJwl64qhi8LfgjyNLUVptMH4SxC/aN9fB3BI/HsOdxHAZpdW+r8UJ+K4S4N/6iKbWd3+zLQaY9Uaj1jajkwIvQ2Iick5z/yAml1A8+Tf7Uj3l49qOH+wdn/ZOmhQQ5ZuHBFSCydUsltLUt2LDBVNJXxdQbR4o1N1ciDvPMOStGWnxEM2eu+dmqkvw4HJy4zlvd34sOT9ICVP84nwsQT0eW9XE23Ty5Kl+VOGwX/JUP1h8eRD9FP0knchgt5Y0qdXle0nB4veuUupqR9UPxbq6EIJQ2VDCtpeSX+7LgviUqP0zO/4B1vSd3Lod62lYFAqo5JsoaS8uVdT7rCszmwczny9JbLzwNyPHepV5bVgVT1t+pOkzNCBalru112zmVy/x8mToXvqzNXaXgYrwhtojas6xSz8l4o8pacw5gr6cFn3Nyt8ny2vRoVfEb7oATPtahGakLLms7aKuu5Jwqs2DyibIQ/fzpstK8LFV+xQudBCseIG5lVmZIhdulc71TPF6kb6/BZRrQM4KJ4cOhPZ/mvftJWi1EdVqJqouhx2dCDNkWsb0SKWWV/KUK+wDOYQT/83VEYLntQNJ5+w4Tq4JHQwFpPVMsS6UUsDRlf6viVe4whEotoepXsUAb8vyBr9yhA7hEM81BwBzqgjNn2bxRNS+OSL5W7GOZV8bri0Hq+4P2RtTaW5dnUNV85A5Mn8KaBm7jL6py+bL5Z8usothY+hm4snx3uAAcndOYi3EJY8vsTaOXl8pf8aoKq1OuZi6WUFmv9fAXonTG4OYJbqEl088SNXD/1bYQakpRg4X4ogqfztlnzB0dTxJ8u/e+uRXvPlUMq0K8KdNwJB1aURJOmNkaJUZ3jqHfiJXZRHmbmpFJ2XXT0p7X/bv3lM6N1mLDaFbSj26qhEiCizTb6cTTBClsuVD34xF7hHjxdmcryATn6n46XQstf4cfFSxve9zw7pXWnLREc+X3EWgkOs4Vdxirvu7Rh9A7+rR8qkmVejrz5QUHNbiLabBWXeMWdRk9XFV2U0qbKF6ZfdlEWd1EDs04dRKfuu6MccOr4zxl5Ped8fFxvZ6rP3+2TsI0u3RFz8DvaTb849+QvGxXLwP+GpFmzbE7SK24WHUObwzku4R1Hl/uPcM047uz2OTtsvgKaVzduh7QNg+f+U9/WU7Cuq7Df8NfBUAQBEEQBEEQBEEQBEEQBEEQBEEQBEEQ+/EPMZJCdy1txpIAAAAASUVORK5CYII=;clipPath=inset(36.49% 0% 33.78% 0%);" vertex="1" parent="_RPkP1gwS6CLPZ-i384K-17">
          <mxGeometry x="10" y="12.36266064115238" width="110.95890410958903" height="32.766558395706824" as="geometry" />
        </mxCell>
        <mxCell id="_RPkP1gwS6CLPZ-i384K-21" style="edgeStyle=orthogonalEdgeStyle;rounded=0;orthogonalLoop=1;jettySize=auto;html=1;exitX=0.5;exitY=1;exitDx=0;exitDy=0;" edge="1" parent="_RPkP1gwS6CLPZ-i384K-17" source="_RPkP1gwS6CLPZ-i384K-16" target="_RPkP1gwS6CLPZ-i384K-16">
          <mxGeometry relative="1" as="geometry" />
        </mxCell>
        <mxCell id="_RPkP1gwS6CLPZ-i384K-19" value="" style="image;sketch=0;aspect=fixed;html=1;points=[];align=center;fontSize=12;image=img/lib/mscae/ResourceGroup.svg;" vertex="1" parent="1">
          <mxGeometry x="230" y="390" width="50" height="40" as="geometry" />
        </mxCell>
        <mxCell id="_RPkP1gwS6CLPZ-i384K-15" value="Azure account" style="text;html=1;strokeColor=none;fillColor=none;align=center;verticalAlign=middle;whiteSpace=wrap;rounded=0;" vertex="1" parent="1">
          <mxGeometry x="355.47" y="50" width="140" height="30" as="geometry" />
        </mxCell>
        <mxCell id="_RPkP1gwS6CLPZ-i384K-22" value="" style="group;strokeColor=default;" vertex="1" connectable="0" parent="1">
          <mxGeometry x="410" y="215" width="70" height="110" as="geometry" />
        </mxCell>
        <mxCell id="_RPkP1gwS6CLPZ-i384K-23" value="" style="image;aspect=fixed;html=1;points=[];align=center;fontSize=12;image=img/lib/azure2/general/Subscriptions.svg;" vertex="1" parent="_RPkP1gwS6CLPZ-i384K-22">
          <mxGeometry x="10.214615384615385" y="10" width="49.58" height="80" as="geometry" />
        </mxCell>
        <mxCell id="_RPkP1gwS6CLPZ-i384K-24" value="Subscription" style="text;html=1;strokeColor=none;fillColor=none;align=center;verticalAlign=middle;whiteSpace=wrap;rounded=0;" vertex="1" parent="_RPkP1gwS6CLPZ-i384K-22">
          <mxGeometry y="80" width="70" height="30" as="geometry" />
        </mxCell>
        <mxCell id="_RPkP1gwS6CLPZ-i384K-25" value="" style="group;strokeColor=default;" vertex="1" connectable="0" parent="1">
          <mxGeometry x="510" y="215" width="70" height="110" as="geometry" />
        </mxCell>
        <mxCell id="_RPkP1gwS6CLPZ-i384K-26" value="" style="image;aspect=fixed;html=1;points=[];align=center;fontSize=12;image=img/lib/azure2/general/Subscriptions.svg;" vertex="1" parent="_RPkP1gwS6CLPZ-i384K-25">
          <mxGeometry x="10.214615384615385" y="10" width="49.58" height="80" as="geometry" />
        </mxCell>
        <mxCell id="_RPkP1gwS6CLPZ-i384K-27" value="Subscription" style="text;html=1;strokeColor=none;fillColor=none;align=center;verticalAlign=middle;whiteSpace=wrap;rounded=0;" vertex="1" parent="_RPkP1gwS6CLPZ-i384K-25">
          <mxGeometry y="80" width="70" height="30" as="geometry" />
        </mxCell>
        <mxCell id="_RPkP1gwS6CLPZ-i384K-29" style="edgeStyle=orthogonalEdgeStyle;rounded=0;orthogonalLoop=1;jettySize=auto;html=1;" edge="1" parent="1" source="_RPkP1gwS6CLPZ-i384K-16" target="_RPkP1gwS6CLPZ-i384K-2">
          <mxGeometry relative="1" as="geometry" />
        </mxCell>
        <mxCell id="_RPkP1gwS6CLPZ-i384K-30" style="edgeStyle=orthogonalEdgeStyle;rounded=0;orthogonalLoop=1;jettySize=auto;html=1;" edge="1" parent="1" source="_RPkP1gwS6CLPZ-i384K-16" target="_RPkP1gwS6CLPZ-i384K-23">
          <mxGeometry relative="1" as="geometry" />
        </mxCell>
        <mxCell id="_RPkP1gwS6CLPZ-i384K-31" style="edgeStyle=orthogonalEdgeStyle;rounded=0;orthogonalLoop=1;jettySize=auto;html=1;entryX=0.484;entryY=0.018;entryDx=0;entryDy=0;entryPerimeter=0;" edge="1" parent="1" source="_RPkP1gwS6CLPZ-i384K-16" target="_RPkP1gwS6CLPZ-i384K-26">
          <mxGeometry relative="1" as="geometry" />
        </mxCell>
        <mxCell id="_RPkP1gwS6CLPZ-i384K-32" value="" style="image;aspect=fixed;html=1;points=[];align=center;fontSize=12;image=img/lib/azure2/identity/Azure_Active_Directory.svg;" vertex="1" parent="1">
          <mxGeometry x="330" y="1167" width="70" height="64" as="geometry" />
        </mxCell>
        <mxCell id="_RPkP1gwS6CLPZ-i384K-34" value="&lt;b&gt;Azure AD&lt;/b&gt;" style="text;html=1;strokeColor=none;fillColor=none;align=center;verticalAlign=middle;whiteSpace=wrap;rounded=0;" vertex="1" parent="1">
          <mxGeometry x="335" y="1240" width="60" height="30" as="geometry" />
        </mxCell>
        <mxCell id="_RPkP1gwS6CLPZ-i384K-38" value="" style="group" vertex="1" connectable="0" parent="1">
          <mxGeometry x="69" y="1120" width="120" height="180" as="geometry" />
        </mxCell>
        <mxCell id="_RPkP1gwS6CLPZ-i384K-36" value="" style="rounded=0;whiteSpace=wrap;html=1;" vertex="1" parent="_RPkP1gwS6CLPZ-i384K-38">
          <mxGeometry width="120" height="180" as="geometry" />
        </mxCell>
        <mxCell id="_RPkP1gwS6CLPZ-i384K-33" value="" style="sketch=0;outlineConnect=0;fontColor=#232F3E;gradientColor=none;fillColor=#232F3D;strokeColor=none;dashed=0;verticalLabelPosition=bottom;verticalAlign=top;align=center;html=1;fontSize=12;fontStyle=0;aspect=fixed;pointerEvents=1;shape=mxgraph.aws4.user;" vertex="1" parent="_RPkP1gwS6CLPZ-i384K-38">
          <mxGeometry x="21" y="33" width="78" height="78" as="geometry" />
        </mxCell>
        <mxCell id="_RPkP1gwS6CLPZ-i384K-35" value="&lt;b&gt;User&lt;/b&gt;" style="text;html=1;strokeColor=none;fillColor=none;align=center;verticalAlign=middle;whiteSpace=wrap;rounded=0;" vertex="1" parent="_RPkP1gwS6CLPZ-i384K-38">
          <mxGeometry x="30" y="120" width="60" height="30" as="geometry" />
        </mxCell>
        <mxCell id="_RPkP1gwS6CLPZ-i384K-39" style="edgeStyle=orthogonalEdgeStyle;rounded=0;orthogonalLoop=1;jettySize=auto;html=1;" edge="1" parent="1" source="_RPkP1gwS6CLPZ-i384K-36" target="_RPkP1gwS6CLPZ-i384K-37">
          <mxGeometry relative="1" as="geometry" />
        </mxCell>
        <mxCell id="_RPkP1gwS6CLPZ-i384K-69" value="" style="rounded=0;whiteSpace=wrap;html=1;" vertex="1" parent="1">
          <mxGeometry x="560" y="1300" width="350" height="240" as="geometry" />
        </mxCell>
        <mxCell id="_RPkP1gwS6CLPZ-i384K-70" value="" style="group" vertex="1" connectable="0" parent="1">
          <mxGeometry x="587.97" y="780" width="274.04999999999995" height="180" as="geometry" />
        </mxCell>
        <mxCell id="_RPkP1gwS6CLPZ-i384K-40" value="" style="rounded=0;whiteSpace=wrap;html=1;" vertex="1" parent="_RPkP1gwS6CLPZ-i384K-70">
          <mxGeometry width="274.05" height="180" as="geometry" />
        </mxCell>
        <mxCell id="_RPkP1gwS6CLPZ-i384K-45" value="" style="group" vertex="1" connectable="0" parent="_RPkP1gwS6CLPZ-i384K-70">
          <mxGeometry x="30" y="20" width="68" height="80" as="geometry" />
        </mxCell>
        <mxCell id="_RPkP1gwS6CLPZ-i384K-41" value="" style="shape=image;html=1;verticalAlign=top;verticalLabelPosition=bottom;labelBackgroundColor=#ffffff;imageAspect=0;aspect=fixed;image=https://cdn0.iconfinder.com/data/icons/logos-microsoft-office-365/128/Microsoft_Office-08-128.png" vertex="1" parent="_RPkP1gwS6CLPZ-i384K-45">
          <mxGeometry width="68" height="68" as="geometry" />
        </mxCell>
        <mxCell id="_RPkP1gwS6CLPZ-i384K-42" value="&lt;b&gt;One drive&lt;/b&gt;" style="text;html=1;strokeColor=none;fillColor=none;align=center;verticalAlign=middle;whiteSpace=wrap;rounded=0;" vertex="1" parent="_RPkP1gwS6CLPZ-i384K-45">
          <mxGeometry y="53.33" width="60.15" height="26.67" as="geometry" />
        </mxCell>
        <mxCell id="_RPkP1gwS6CLPZ-i384K-46" value="" style="group" vertex="1" connectable="0" parent="_RPkP1gwS6CLPZ-i384K-70">
          <mxGeometry x="190" y="23" width="57.6" height="67" as="geometry" />
        </mxCell>
        <mxCell id="_RPkP1gwS6CLPZ-i384K-43" value="" style="dashed=0;outlineConnect=0;html=1;align=center;labelPosition=center;verticalLabelPosition=bottom;verticalAlign=top;shape=mxgraph.weblogos.skype;fillColor=#2AACE2;strokeColor=none" vertex="1" parent="_RPkP1gwS6CLPZ-i384K-46">
          <mxGeometry width="57.59999999999997" height="47.85714285714286" as="geometry" />
        </mxCell>
        <mxCell id="_RPkP1gwS6CLPZ-i384K-44" value="&lt;b&gt;Skype&lt;/b&gt;" style="text;html=1;strokeColor=none;fillColor=none;align=center;verticalAlign=middle;whiteSpace=wrap;rounded=0;" vertex="1" parent="_RPkP1gwS6CLPZ-i384K-46">
          <mxGeometry x="5.794082840236743" y="43.07142857142858" width="51.12426035502957" height="23.92857142857143" as="geometry" />
        </mxCell>
        <mxCell id="_RPkP1gwS6CLPZ-i384K-55" value="" style="group" vertex="1" connectable="0" parent="_RPkP1gwS6CLPZ-i384K-70">
          <mxGeometry x="110" y="90" width="60" height="70" as="geometry" />
        </mxCell>
        <mxCell id="_RPkP1gwS6CLPZ-i384K-47" value="" style="shape=image;verticalLabelPosition=bottom;labelBackgroundColor=default;verticalAlign=top;aspect=fixed;imageAspect=0;image=data:image/jpeg,/9j/4AAQSkZJRgABAQAAAQABAAD/2wCEAAoHCBIPEBIQERESEQ8REg8SERESEh8PEBAQGRUZGRgUFhYcIS4lHSwrHxYYJjgnKy82NjY1GiU7QDtAQC40NTEBDAwMEA8QHxISHjQsISU2PjQ/NjYxNDE0MTQ6MTY0NDExMTE0PzYxNDE0MTE0NDQxNDQ0Pzc0NDQ0NDQ0NDE1Mf/AABEIAOEA4QMBIgACEQEDEQH/xAAbAAEAAQUBAAAAAAAAAAAAAAAABwEDBAUGAv/EAEgQAAIBAQIICAoHBwQDAAAAAAABAgMEEQUGEhMhMVFxMkFSYYGRseEHFBUXIjNTcpKhI1STssHR0hZCYmNzgsIkNaLwJTRD/8QAGgEBAAMBAQEAAAAAAAAAAAAAAAMEBQIBBv/EADMRAAIBAQIJDAMBAQAAAAAAAAABAgMEERIUFSFBUXGBwQUxMkJSYZGhsdHh8DM0YsIT/9oADAMBAAIRAxEAPwCZgAAAAAAAAAAAAAAAAAAAAAAAAAAAAAAAAAAAAAAAAAAAAAAAAAAAAAAAAAAAAAAAAAAAAAAAAAAAAAAAAAAAAAAAAAAAAAAAAAAAAAADnMYca7Pg9qFTKnVkr8iOuMdsm9XadQhKbwYq9nMpxgr5O5HRg4HzmUPYVPi7h5zKHsKnxdxNilbskWM0e0d8DgfOZQ9hU+LuHnMoewqfF3DFK3ZGM0e0d8DgfOZQ9hU+LuHnMoewqfF3DFK3ZGM0e0d8DgfOZQ9hU+LuHnMoewqfF3DFK3ZGM0e0d8DgfOZQ9hU+LuHnMoewqfF3DFK3ZGM0e0d8DgfOZQ9hU+LuMiw+EWyVJqM4TpKTuy3dKK55XaUusOy1l1RjNHtHbA8xaaTTvT0prSmj0VycAAAAAAAAAAAAAAAAAAAAAEFY7VHLCVpvd91RLoSil8kidSB8dP8AcrV/V/xResH5Hs4opW7oLbwZpAVvF5rGYUBW8AFAVAFxQFSgAAAAAB6eE94rTcrBZW3e8xS08ySS7DcGmxR/26yf0KfYbk+cn03tN+PRWwAA5OgAAAAAAAAAAc/jbh12CgpQSlWqSyaaepXK9za47tGjnOoQlOSjHnZzOahFylzI6AEPvHDCDbfjN1/EqULlu0D9r8IfWX9lD9JeybW1rz9illGlql5e5MAIf/a/CH1l/ZQ/SP2vwh9Zf2UP0jJtbWvP2GUaWqXl7kwEJ43x/wDI2r+q/uozP2vwh9Zf2UP0mmtdaVecqtR5dSbypyuUcp7blci3Y7LUoSbk1nWi/Wu4rWq1wqxSinmem7VtMPJQyS9kLYM2thfvZRwi1km0wHDTPdH/ACMFQRscDrJnVjsyenWczeY5k70bXJ5hkcxcQuIbyAt5HMeqMPTjo/ej2nq490V6cfej2hvMDY5C2DIWwuAivObjworYVSPQAZ2GC/U0/d/EzDDwZ6mn7v4mYYkuk9r9T66n0FsQABydgAAAAAAAAA4Hwn6rJvtHZTO+OB8J+qy77R2Uy3Yf2I7/AEZVtv4JbvVHAFShU+gMEoC9Y7JVrzjTpQlOctUY697epLnZ2+DvB9elK0V2m/8A500ml/c9fUQ1a9Ol037/AHaS0qFSr0F7fdhwQJPeINjuuyq9+3Ljf92402FcQakE5WapnEtObklCo1/DJaH03EMbdQk7r/EmlYa0VfdfsOJB6nCUZOMouMotqUZLJlFrWmnqPJbKgM3B87qtRfw0+wwz3Za0Y155UkvRo63dxEdXonqV/wB70dHBnoxaVrp8uHxIueN0+XD4kRq8gaZeLlHhx96PaYvjdPlw+JFyhaqbnH04cKP73OGncLmboFvPw5SGfhykQnJcBbz8OUhn4cpAM7TBnqafu/iZhh4Ld9Cm1qyfxMwxZ9J7X6n1tPoLYgADk7AAAAAAAAABwPhP1WXfaOymd8cD4T9Vl32jspluw/sR3+jKtt/BLd6o4AMGwwFZ1WtdnptXxlVp5SfHFSTkupM35NRTb0GFFOTSWkkvFHAkbHZ02vp6qUqj41fpUNy7bzBxpxuVkk6FBRnXV2XKXAp36VG5cJ3dXyOrtFVQhKb1QjKT3JXkF1q0qk5Tm75TlKcntlJ3vtMayUlaKkqlTP8APBI17XUxenGFPN7LizfQx1t6llOtCS5DpRyN2hKXzO5xWxjhb4OLioV4JOcE74yjqy481/FxXoiQ3OKNqdK32dp3KVTNy54z9G59LT6C7abJTlTbjFJrUrinZ7VUjUSk203dnd51vhBwKp0/G4L6WGTGpd+/Bu5SfOm1p2PmRHJOeEKCq0atN6p06kH0xaILi9BHydVcqbi+r6P6zvlCmozUlp9UVMK0evl7tL7qM0wrR6+Xu0vuouVNG0pw593FGTTLhbplwkXMcsF6x+sh78e0sl6x+sh78e0PmPDpAUBXICpQoACRsDf+tR9xdpnkd4v4/wBGFV2K0wdLN1HSp108qnJX3RU1ri+fStxIhg1YuM3fr4n1dGSlBNakAARkgAAAAAAAAAOB8J+qy77R2UzvjgfCfqsu+0dlMt2H9iO/0ZVtv4JbvVHAG1xXqKNvsrerOxj0y9FfOSNUeoycWpRd0otSi+NSTvTN6UcKLWtGFGWDJS1O8nO2Us5SqQWudOcVvcWvxIKua0PQ1oaetPYTVgXCcbZZ4V4Nekrpx5FRcKPX8mmcVjdipUVWVos8HUpzbnOnBXzhJ8JxWtpvTo1X7DIsFVUpypzzPitH3Ua1upurGM4Z0vR6TijaYs0nO3WVLXnqc+iMsp/KLMWGDa0pZMaFSUuSoNy6rjv8S8WJ2Zu0V0lVayacNbpxeuUmuN6ruJX7dGhaa8adNu/PdmKNnoTnUWbMnxOstlZU6VSo9ChTnJvYkm/wIJjqRKOP2FlRszoRf01o9FLZTT0t7+D0vYReV+TYONNy18PrJ+Uaic1FaOIMK0evl7tL7qM411pqJV5LjUaX3EXKvMtpSpq9vZxRmUy4WIVo/wDUes/Hb8jtNXHjTvLpesfrIe/HtMPPx2/Iu2a1QjUg29ClFvRzhtHlzOpKNmDLC1LlP4WW5YXpcp/CyLBeohwJajYthSLNklnllq+MOKUouKl7qeszItR4K08p8Lo2HjzHjWg5yOLEq1pnUryUKUq0pRgtNSpG/j4kn17icou9JkY0n6S3kmUOBHcjLt0bsHfwNrk2pKeHfoweJcABQNQAAAAAAAAAHA+E/VZd9o7KZ3xwPhP1WTfaOymW7D+xHf6Mq238Et3qjgACp9AYJs8BYcq2GblTulCV2XTlwJrbzPYyRMH45WOskpTzNTjhUV139y0fMicFWvZKdZ3vM9a46yzRtVSkrlnWp8NX3MTVLDtkSv8AGqHRVi31J3mhwvj1Z6ScbOnXqaUm04U4va27nLo6yMwQw5OpRd7bZNPlCpJXRSXmZFutlS01JVasnOc3pb1JcSS4kthjlQX0klcii2272UNPbn/qZ+7R+4jcHqpg2nWk2/Qm0vpI8ejRlLjIa/MtvBndKSi3fq4o1UGemy7a8H1LPpksqHFOOmHTs6TFczxM7uv5j25HmM/SW9HmnGU5KEIuUnxJXs3dgwJGLU6zypa1Ti/RXvS49yPbw2o85i2ayzrO6Eb0tcnohHeze2HBVOldKf0s9slfCL5o8e9mRB3JRSUYrVFK6K6D2pHUptlaVRsyHO/WUPCZ6TIyIuU+EiTaHAjuRGMNa6CTqHAjuRncodXfwNjknr7v9FwAGca4AAAAAAAAAORx+wTUtNCE6UXOdCU24R0ylCSV7iuNpxWjedcDulUdOamudHFSmqkHB6SApei2noa0NPQ0+dFMpc3WT8DTyn/Hn8Gdkz+/L5IBylzdZTKW1dZP4GU/48/gZN/vy+SAU0+MredB4TbNl2+L/k01/wApnIeI8xPG2uSTwfP4Ks7MoSccLm7vkz7xeYHiPMFYeY9xt9nz+Dn/AIx7Xl8mwW9IzLLplfxaLtxr7NZLuI3Flp3B1XUuzXEUoqOk2FLVdxPWnpTXOa+1YAoVHlRTg+TF3U30XaOg2MD3eSIrqTi70zU07OqCyIwza5tLlzuXGXIyNjJJq5pNbGYtSy3aYP8AtevoZ0me33854jI9xkWFetD1nuLPQZEZHtMx1IuxkeHlxfhLSuglChwI7kRVGX4Eq0OBHcjMt/V38DV5K6+7/RcABnGwAAAAAAAAAAAAAAAAAARvjxSyrWn/AC4dsjnfFlsOqxyX+qT204drNAbVmgnSj90nz1rk1Xl90IxPF0VVmRllCbARWw2WIUUjJhG483lco6UbjltsuplbyzlFco9uPLi7eLyzlDKPRcXJpS19fGixOm1q0r5lzKKZQBaUj0mVlFPeeLrgel5SJZocCO5ERJ36NpLtDgR3IzeUepv4GryV193+i4ADNNcAAAAAAAAAAAAAAAAAA5zGXBHjF046Jxvud16a2M5Z4BrbY9fcSW1eeM1HYixTtNSnHBi8xWq2SjVlhSWfaRv5CrbY9b/IeQq22PW/yJHzMeShmY8lHePVu7wI8n0NT8WRx5CrbY9b/Ip5CrbY9fcSRmY8lDMx5KGPVu7wGTrPqfiRx5CrbY9b/Ip5CrbY9fcSRmY8lDMx5KGPVu7wGT7PqfiRx5CrbY9b/IeQq22PW/yJHzMeShmY8lDHq3d4DJ9DU/FkceQq22PW/wAinkKttj19xJGZjyUMzHkoY9W7vAZOs+p+JG/kKttj19xXyFW2x6+4kfMx5KGZjyUMerd3gMnWfU/E4fA+L0s5GdTSotNJX3NrU22l1HdwVySKKCWpHsgqVZ1HfJlilRhSjgwX3aAARkoAAAAAAAAAAAAAAAAAAAAAAAAAAAAAAAAAAAAAAAAAAAAAAAAAAAAAAAAAAAAAAAAAAAAAAAAAAAAAAAAAAAAAAAAAAAAAAAAAAAAAAAAAAAAAAAAAAAAAAAAAAAAAAAAAAAAAAAAAAAAB/9k=;clipPath=inset(21.11% 17.11% 18.89% 9.11%);" vertex="1" parent="_RPkP1gwS6CLPZ-i384K-55">
          <mxGeometry y="2.3877777777777283" width="51.21951219512195" height="41.65609756097561" as="geometry" />
        </mxCell>
        <mxCell id="_RPkP1gwS6CLPZ-i384K-51" value="" style="group" vertex="1" connectable="0" parent="_RPkP1gwS6CLPZ-i384K-55">
          <mxGeometry x="2.926829268292683" width="57.073170731707314" height="70" as="geometry" />
        </mxCell>
        <mxCell id="_RPkP1gwS6CLPZ-i384K-53" value="&lt;b&gt;Outlook&lt;/b&gt;" style="text;html=1;strokeColor=none;fillColor=none;align=center;verticalAlign=middle;whiteSpace=wrap;rounded=0;" vertex="1" parent="_RPkP1gwS6CLPZ-i384K-51">
          <mxGeometry x="6.585365853658536" y="46.666666666666664" width="43.90243902439024" height="23.333333333333332" as="geometry" />
        </mxCell>
        <mxCell id="_RPkP1gwS6CLPZ-i384K-57" value="&lt;b&gt;USER&lt;/b&gt;" style="text;html=1;strokeColor=default;fillColor=none;align=center;verticalAlign=middle;whiteSpace=wrap;rounded=0;" vertex="1" parent="_RPkP1gwS6CLPZ-i384K-70">
          <mxGeometry x="98" y="10" width="60" height="30" as="geometry" />
        </mxCell>
        <mxCell id="_RPkP1gwS6CLPZ-i384K-71" value="" style="group" vertex="1" connectable="0" parent="1">
          <mxGeometry x="550" y="1010" width="350" height="240" as="geometry" />
        </mxCell>
        <mxCell id="_RPkP1gwS6CLPZ-i384K-58" value="" style="rounded=0;whiteSpace=wrap;html=1;" vertex="1" parent="_RPkP1gwS6CLPZ-i384K-71">
          <mxGeometry width="350" height="240" as="geometry" />
        </mxCell>
        <mxCell id="_RPkP1gwS6CLPZ-i384K-59" value="&lt;b&gt;OFFICE / MICROSOFT 365&lt;/b&gt;" style="text;html=1;strokeColor=default;fillColor=none;align=center;verticalAlign=middle;whiteSpace=wrap;rounded=0;" vertex="1" parent="_RPkP1gwS6CLPZ-i384K-71">
          <mxGeometry x="89.5" y="20" width="171" height="30" as="geometry" />
        </mxCell>
        <mxCell id="_RPkP1gwS6CLPZ-i384K-67" value="" style="group" vertex="1" connectable="0" parent="_RPkP1gwS6CLPZ-i384K-71">
          <mxGeometry x="10" y="60" width="318" height="159" as="geometry" />
        </mxCell>
        <mxCell id="_RPkP1gwS6CLPZ-i384K-64" value="" style="shape=image;verticalLabelPosition=bottom;labelBackgroundColor=default;verticalAlign=top;aspect=fixed;imageAspect=0;image=data:image/png,iVBORw0KGgoAAAANSUhEUgAAAT4AAACfCAMAAABX0UX9AAAB+1BMVEX////rPQABeNTKZOsop+oam6H/kGvTUzB8g+sQfEIDbHBBpu4ho2UZXTgrfdPqJQAZWr4QP5FRWchMU73EPhvrMAAEZLoDeX30pZUAdNN3Gav96uMzxIEHUZw4xtAGO4/4zMbz4/wAUKV+vvI3YKRLfmH0+vvIWOkVkN6IpM34w7etS9T+8u6TMr8AeDnCNAAAb9LMbervdV3ubVI7mebcmI5vpuKXWr3Nz+o8RrjI3fF4q4wATrgXi0+PRqZZX6syqXCRldJP2f4PcDyib8NyAKjN4dXj6/g7Q7mOuLnsSh7O59kncsCbOyKJ0fYURyu/fN1gKHfta0cgltpBu+oFSoHk7/krtfF+Mh0LKmAAKYnVi++ofMdfZs24uuXezenzoJDtWDHyinX2tKay2cOD4P3mu7WsTTEOYjQAh90OWIkMLBsATiAccZzSRRhveOrpxvaIL7DE19edv+Zvp6o6QHzwgWnuUSpcy5X7pIoSv3X/imNnkMPtYjkyecGXxasAaxkziFbTfm1eg8pamnS7AADKVkCrTTD8nX4+mM8AAEycp7oJRXjWiXoOL1Wy1fC7cGKOJAASTW+crqQOMx+PVUZ6kb9+noxVjI6NlO/Viu90etKiptmIjc8EWVuUycxwub66mdNeLG2mU8I4PW4AHVxIUKGs4+fKzffbFTkXAAAPC0lEQVR4nO2cjX/bxBmAz1kbmkAtp60cu15aNe2E64nU2GnqGDPoaOrEC7A54ADrhy2xjjBoRhycdU3SpqUZrEC2sbGUQhljDP7MvXcnyZJ9cs6Jkyj73cOPxlb1+fS9e987SUFIIBAIBAKBQCAQCAQCgUCwx9B2+wT2MkpKktNGbLdPY08SKwckORCQZWnhhrLbJ7PH0IwKdmciS3LKEO2YF9xoA25kqbzbZ7U3iOkBW57siMDIbp/YHsDRaKHTk9NluU19mlEuk1yjlMvGtp6q/0hYjVYmvR1oiEmt9MWURMKdlxMSAGtqFfwBKYEKZ5cJe1Iadg5L9lTSVySzmyvolpUW+jRdlghpxbEHuRLBUVeRZT2SQmlZ4glaJU33VKsvMgJkSZF8liz0rV3g9qKQ0JOdOdZbnyFBiAYWCviHfdkVeYn8TEiyQleSeAIoLcnFVBpivmAtKUIzSKeWJLI7Qw7sCX3EleuCPfXpoI10clpiQZaLdKEmyQn6t5aIGFfbTUfIamUIWXOBGbUa2V1ZKsYovi6e2tAHsVew1wOVNXNtSSEfUnJ6MycAAUh+Rqz9WPuvMVf3Gfz6NFjs+JqS6eVuVZ8hSzi+NAhs5+KadGMze9tp+PXpsis8NLP5anV9qcadazGl3vY0RWG1wwTVF5Fl1+I0V/7Zdfj1SYEl15Y6vu50oRAIFAgB/CGQQIlAgGpSijhNy0vkW2IBp4ElpekEIjKJ6YrsThEVaU9UkNz6oD5xX5AiQ85YkiRc9WAghcOfCVwGEmHQO0KWDtA8jLMOzthSovEECiTMNKnhbwrNa/oRbn3QR7nrEUi5ZRSLYYskQablNMmTCVnG+kBYGm8QS8VwHpV0WBhbatxJrELLPAVbjkDlWDEPCQm5rEcSvk67qA195YbOCV9hDTFSB9R/GgnWemuMSVZeCNSXKukU1CoFeggDnJPmDSNuci6SWZ/X/C2QW5/epC9AckWzPhJ9RTng3Nb6Uq4vThBZNdpGI3KhJkViWgyCFq+hpfRyuZyWwaav/W1Bn1f0YX3Qsh3bBuyiRKF5lhwmkUiUi5JEaskbMMigu4E4rG+p1eTNlUM7RRuNV2qIA9oi2Y1XcY7cNDlQTFHSgcbOr0CCtVwv+xbkBcffpxp7S3/RTupQXFvGaCpmR1/CKRt2KNszAI02NNJJRuqW4N+p+Sh+hVtfTGqozMwrZkdfwhk0OHMkbBr7shSONoduwx3mDaMRn8FfNhcC7s6vIFfo2qzoU5wjWBigtIggMtXgaOyGK/r+b/QZ7vAzzELXM3WU6+sWmsdzdWrkn6FuWK9PYZHdy36un9uYcYERhOHYzuzhPeq+Ii2eKXqL/t+cK6jZ0gKucNObMpavIPpkLn0xKC5081rKkA00c21m3Qc7MefsFQ1/WTA31M0jRcyY0paon5g1AZYi362Z70hjj+szFDwyLbtiw3O6NBaAMjZdjpRTsjU48Iw+fOGynlCMFP6nMeiXhG7HeURaKOMFsjUMhvUrsHqFfo9IaUNRjCWZdrC+RZFSSsOiFvc6dIkMpuD/cn1tU1+ajl7tKYOEVazgb/atC6sIthcUrMNH6DiNdnURe9DWsSvdFmKRpltbre60aYaeXkrrjupDM8wHYhSDhlHMsHpIo1Ys1sy7KFoktVSsRRzVjFFLL6V0xXHcMiywbrok9FTRtb5fiUHFn9aNusXWNyoFTSg6nbAr6pEEDNuFvrZJpEEfZATZ+aSLrytWn6EZC66HhPAtXT9XrP7DfLwvYD6e5v9+23coNdyAl8rKbp/IXkUzfH+HQSAQCAQCgUAgEAgEAoFAIBAIBIK9Sul0E+ouno76vM2Pbf6wwUYxQ08Vb354YxduKEwONnG6g7vPnmSw5r3+m0/Y1PX98RetDhHTK0vFYrG7u/vmzRs7fSMwPEBw6lvs4O4fZzHsHd/t6zMqRUI34eYOP/TcRZmivIJ5acONVO72ve369KWiU1/3zZ196dLUt48w/XPMb1pvkV2cDIcnF7Ncu2frK3mu364+256lb4f9BdvUV1oeDBNCy3mO3fPru0i49SyBQ59y7do15eyRxyh1fd03t/8pkmxX1ALLC0/y6suGwjahVgFYyhPihKmN9d26PUTooYDA51vqO3vvDOaIyWpdX/fNbU/AI9EuF6c49eUd9sLhQe/4y4/nCCFCbjk+7CDO0PeMJY7wwls9PfVm/ARLH5hzCPytU9+2N1+iL5oMBruSRN+rPPqyI/GuYNDpL+x5gEwuZKoDebnQwGTQQdRD38oKdrjCq+/MNcydM436tj/8sL7kCASPukb1mQ2ZSGRnXnU4SVu6Q2DIs4LL5iard0OhyUXQV/08x6VvSEUfDMEfK7z6NKSBqGvY359c+pTNeuEE9CWrSMuuqaiEnbxK23DQW5/aVW/vk7a/Za8DZHJhVM3lsuhuCH/g0/cBunj7GXRriFufdu/eEQ2tNkZf93Y/AAv6gvBnMglXUo3y6Is7e8sgETgJSWFmhF2EZHI5NZ8LIXQltwgK+Rrv0EW0oqpD3I0X9B25p6A7jdHX/eGW5GzMSDQ6gvLQ70VPkh8ufR/NNW+wlnTnmsnwMk2q8RlmA87gyMvdRaXSeBWFefWtINx++fWh1dWzCJ1pir4d0FclSqLDSG3UN/Xn+4wNnPKiM1P7puKWP1b9AvpAW6Y0gkJZlTd19Ny+iNTbJPMefOutZ20gKpsg+sjoheSOFx9z0uJtuY4wEoWuL4v1jaAS/PjY1IcHbvGBt5ubb9DhLhqnedoWyDgAZN67aBFdCaFFFT4PDIYc5BgFjx19xOMLLx88+IJdxnjqQ3c+uUNLF7e+7X5vhjReFVJpco0E4admKoDsO3hq33SzPrvtRoOmPIwZfgwboCyM8mgyl8+j07lQH5++i6jH7PtAXw+HvntW3ezSd+STDihqBc68JZSPB6sIDUfr+roGB6ampxn6THdd0GqdTHn1frjuU5GKmzBkDr7oG3oGvXn7Fs28nPrsUYdL3/VrHVDUCtAXnaHzHiM4sEx9A4NYHksfdhztiu9rooW+LFQsoUmEQpz6ehDq6THrPi59Soyt78xOlM3R6MlstjpDmuXHfVhe3zIeeTD1rSWjwalmeUSgR+MNLWYg7nLVKgjjarwrH6yQoQevviP1Ia9b350OGGoJTaRRqPtoq3x3aqCv7xTkDeqPUfnFH2fLwzAOgPXRYRsZ93L2ffa4l0efa8rAqe/Mtk85V5MU097ku9CNLZMJU+KPoU/1tscqXNxTBqH3XXcDWPreHHLOuBwEfXXeYehDxlnDMP7y1xcJrzn0XT+7VTsbk6W8TfnbRyQPWP6Y447StIc99rg3nyG8btLn5A3WTA3tiT/7HeHvBzfUR/nHawSnvR182/ddEyuRmv7YkwZrrzDkveQ9c4z5jmGPrY/y2cuEg7z6YMDrqvh21B5qskEFbny3gxP1OBV2nFvfOwebaaUPfXLdlXS3u+RzwQgn7K/j+vijr219SFm9bho8cn1V6dSZc8HszDqoDx1n8YZ3g9+EPoRiZ1cfA4WrZ3f6Lu8a21/r/qwdTp9i8Ln3+upPGPyT40Da7ryyqDLYlRMRCAQCgUAgEAgEAoFAIBAIBAJBe6jTLV7q8gknWLTeRJ2YX1+fZzxa6U3+/IMHP7R7atOPd/BmwvZw4kkWv26xhTr/qBfzqJdfYGb2wIEDs+fbOzVyN6a9TXac3z/5IwZfeG9Q6rV5NM95EBXbA38Z/CWT4duIPutwkvMQuwRbn3f0qb0OHk3wHeQHqu/AA2jFh8bHL/M0SetJEX8333b1rfe6/PG13yumvgMIPTx06NDow403sZ+zmea9kl2hTX2lRy59vetcB3FE3+ghzIZbOJ5S8mf4nbhEOPce5Wk+fRNue72PWtwq/vK8xVeHL182+z5i7zJz/eqIzXBw+SP70aQtX+p2cG6McpTyrSnup4RfMjZQ54D+Bn0tsm9m/PCoyWHgOZp5r4wfOjR+hbV+Nhmt0xWt+0Nqlu+V4p3kHIgj8qjCn22oj5jrt+h9tFHyyIA17G7c1GfWfVcePmQXgOTtCfIYJ3mjztI3FY8nk8lOXHFHOQfi8vn3jo5dUi/w6FP7XRB9/f3793/tFX+gbzRTysN/6pfwccMTAn3RkewMfgfvZNTUF5/piuJX7JK+6wCxPoSujo19gy6Mcevr7Z+fXzf1gTuKx8tuWB/9CPog+gDoAC9jHjK6TKIPP5k+TAJxeWqGhiEm6bvRG9UHbbgdfb1f448TRJ9tb/9+ZgBmSJsdRfnxw7Tvo5Dcwer9sDOIsplkFgVB26mw490wn+q7mj/Rlr51NNcP8Uf07XfAyr+t9I166MPhF0dV/ArFqUnnq3XVjl//FqH6zqFzl9rQN4/mzPTR2+/U9y/GATajrwtCL6+SJrsn9I2dyDfoewrj2fepSJ1g6GOF36b0RePWqyh7Q9+36Go7+vonQOB6sz5G77cpfV3JvPlSorvv86u+sauoLX29/RPQgJv0fd+8wab1RRn6fJo6QFw7+tZx7YzULevzyrwOfQMDA2HbYNJ3ww7Qd/QSFMxjF7557yivvglUmlNh4Av69h/jaryHr5wfbSf6osMjtj4MGExG/Vg240Hb0aPmyI238U7AuHce517Qd8whkHEAUx/9szH6GFOmVJ9dKg9Y9FVHosGOX/5WueSeMrD0PUW+nWte3xx1WONeos/29zXjAPlxyihDH2vGqpSsg3/lh6XvVKevvDOcuAqc+OZXhH9/69Q3doGxfi/p8frNWQO3PuYB6O+2yt9/H/Ofh9Te7KhH8IG/rEX+/nefvm4FX/Nvq/ARV39GsOyZ+hjRh+YmKOadomPH6v5avh+i/vc5jBl8X341PvrVxr+R7f53dtv19csnjbPN3vos5kj87a/rY7VcJ+cPOOA9r/vHzV922clfENp52PpYjdeidMzB3NwGb6EBal3eLP+9XtPfoK+DbxPRpzrsMco9BnnbHnOa2QPi77jv6uUGvnjaBbnxcfRqqy0c+jhDQz0/O3tgdvYB5x1eE/DX18lfTusT1DaDj2yT+SHD8ys8Xdx/w6dFy9YotW1vk2T93fFtFvV7bM93AymBQCAQCAQCgUAgEAgEAoFgr/E/eXLtwIK5gfcAAAAASUVORK5CYII=;" vertex="1" parent="_RPkP1gwS6CLPZ-i384K-67">
          <mxGeometry width="318" height="159" as="geometry" />
        </mxCell>
        <mxCell id="_RPkP1gwS6CLPZ-i384K-62" value="" style="shape=image;verticalLabelPosition=bottom;labelBackgroundColor=default;verticalAlign=top;aspect=fixed;imageAspect=0;image=data:image/png,iVBORw0KGgoAAAANSUhEUgAAAOIAAADfCAMAAADcKv+WAAAA8FBMVEX///8AAAD/43X0pQDgggD9wAbslwD7tQDokADvnAD2qQD/zSf/3l7/4W7mjQD/32TjhwDyoQD8uwP/3VT/0C/+yBv/2Uf/1Dn/32H8uAL/10LrlQD/yyL/3VXIyMicnJxLS0uLi4v/9dH/++7aigH/1Cfy8vL5xGn1zp/77MPOfQLedgDW1tbffAD5sADvxp9cXFxpaWnm5ub0zZ/ZgQFAQEC3t7cjIyN+fn7Q0NCEhIRmZma6uroyMjKTk5OsrKw7OzsVFRX979f6zID4tjX85sb/44b6wyfmmQ3/8sX/8Lj/2j3z07TKcADno1z45tVsSI0JAAAHzElEQVR4nO3ca1faSByAcaMxEEUIigqGi1Rlt1vKAlsQFETa7a5t9/L9v83ONZeZSeKeajOT839Oe6AU0/yYyUz0RXd2IAiCIAiCIAiCIAiCIAiCIAiCIAiCIAiCIAiCIAiChD5++imln/M+vRfo095BpL099Iv8ZtUPrvI+w+/tc0wohpEHeZ/i9/Z7hvBgr/4573P8zkYZQDRVTb8ck338giwoMbrkFJO4F62AxPimUUCi4CsecS8+SeuFIwpAllscojxF8TDW60UhimsMn6T1ohCTBrBeCCK+/g5iwjp/LAxRGryYrxhE1SpaLxYxHVgsYl3hKxJRvgYLQ6wnwIpETM+tuwUiukUdRZeXBHQd04mOG1aPQl0KLAIxyBfHksFNIl79cR6t0UC/Gvx5o/Gn68eIrnnEq/OkGqy6g40uW0gNJB6l+1CHZceNj6BhxJssYePmyXdFoEnEq5vzi1QgChNdMaOIWcLGU9mRhK5vLFHkJRLNHUXJd3jYeKoWZxTlATw8LBRRDSREvxDEJCDq6Voiohs744jJQAWR3LsaRWxIwMNYEaLDgIYRU6Yoqt2OEB0OdJyyQcRUIBK2Y6PoFIAoAqNExzGfeNiQgIzoxIEGE2Vg+7RNRtFxjCW2U33t01NCFHy+4xtIlK9BCiTEsig0cRSThlAeRd844mkGUBjFAGsUUTlFA6A8UX3jiBlAFCf6dKEhT/3qb3mf+nOLEpU+1PWHcngNEp9vFrEtJgoJ0Q+Gjwq1Jb6R+nJxxjpPACLidZnIHM7z/XJZT+LXI0W7YRenCuA+GUWC43O0jNOS+LW2m9G5Ygj39ymR+5hQT+JRlnC3pgCi2HITE2pJfJNN3G0rgJhYDX06E99mEo8E4r5ALDOgbyoRLz1t2RcQy+EIGklky2tbAaTEsiAse2YRgx1EBSwAMbpJKoUBsWwmMX4fgDd6EZhANOVajPlqtSOFz+hRjA9g7X8Rq1UDiEfiCNbSiIKvagBR8BEg6lnEqgFEcQDDnkGsVvUnSlfgM4ieCNSZmDiAJBXwOCBWo2lKVC0xGcTjY06sxvN+zRsk9zYD2Gw2ZeIxJ1bFtBzFWtoUbTYF4jEDUqIk1Jwoz9AmSwFUEz1Py4la44uoGlipVJrCFGVJRM/TmChNUD6AlUqMGAGKo+jRbB2JTcUSGgWiFEBhFD1Pa2LCFVgJU/hiRM/TnJgB7HQqSuHx9S+eCNSUWEkDdnAVFbDFiJ5nElHyUWGnIxNbLUr0xLQmKmZoJ4HYIiGinMZEGZhEbPHMIiYO4AkuSmy1TCQ2a4olhvio8ORkXyVE1+IHQ4gdYROshAMoEluxjCKqlpiTSPsSsFQqqYnvtSTGdnnZx4gtQWgkscOFJ2LSCCYRbVtjonKC0s5O0K2MCFQRbVtT4kkc2AlXGQpEKYAy0bY1JqaN4FmUWColEm1bZ2KGLySW4kWItm0AMQXIiHjg1ETb1px4pvJFgZRYkmJE29ad+OUsC4iJMnBEibZtIvFMShaORoQoAs0gSr6LC4mIfCYR355lACXiiGYiUcmTiCNzifIVqCKOwswh0msxkRcjjkYlE4kfv2UAQ+IoVgLxr7xBijoZQE4ciSmJ7/LmqPr47SLNx4gSUEl8/07HQcT/7cu3m/TU/9H0h7/fCb3/59+8MRAE6dGUNHidgw+kgw+Hr/MvpTSxWHfTlz94jx/8shu+0k39klfo0gp6+X+7Hx68T1/JiTgdDKZdTH3xOYSIywE6+kPwAeZEpJcKmrHjlz44ItLpv0FzlTzJlTiw+LOXqx/MDHRw8pgrcWfGz2faRy9ePtDPf764Y+/sL1b0yXSxoG9cLmbr2R2f3nfoVTTfx5HpHhK3WhAv2fks+ArxEDvLoWWtd/hpLvHjmL1vQV+2rNWcLM3hwaOj+Mi/NkfiLX2GT/xhs1kw45AvhnjJoAM7oyOCHhbLaXfMjejRsmaTbT88eEBEsjl/kh8RWWboYc4Xhim7NrfWlvwZ0zfkGTX1+B/vGT0Y+DBGHKDHe/pKnkQswtfabTCqc0qZRATkPFd0nvKPAq9TffaGhXDwcF/ki3VOxPlqtUFDYU12iDQ4T3r9dOloLa3bBzpBJ+RhST8R3Nq6pG+/FQ8e2fq35PLN+e6GLBMrftGgHimJDkEfLZV0+LZkMNFONx/SZnQdop9RrD570/ySX8j5EdfjHl1K+GqJm9A5e0+kazSW5GMY0uHrWZHI1aomshX1gc3rfFdUfirBvragf7XBZzXAo3CPh6tHX8XnPOaRdSeViDdG/CFqQIyewiWdqAN8ea7w8zk+zTVdOnp8CwlKJy7ogTUgosWlx5/TXQRvgFt0hguCxbOVjNkmXG6Ct5tBHPDbEHLR0RsVPDW3ZBV6tCbdcJMRRJkTdbCjBRH/me7oaEayv0Eatr0/WNsxv41bi998pRLvrGB+507EtwB9xOk+hvcq6HaA7nlLvHyyiYyfb/CXLvvUoSb25qjeLOdNI/4t1CrYCoJ7gH5wc21FvnHehJsGI96LB78L33IbbEo/nDiRvkuc0h/njMNTQVcl2y0XwW0bfvmebooT+k75/m2nu70lrfn3Yfhz+fE/n1J9GzwdDgfqNw0GyW98pZ/iQRAEQRAEQRAEQRAEQRAEQRAEQRAEQRAEQRAEQVAB+g+CoxJAeYgz+wAAAABJRU5ErkJggg==;clipPath=inset(19.96% 25.66% 20.4% 21.68%);" vertex="1" parent="_RPkP1gwS6CLPZ-i384K-67">
          <mxGeometry x="260" y="104.5" width="44.26" height="49.47" as="geometry" />
        </mxCell>
        <mxCell id="_RPkP1gwS6CLPZ-i384K-72" style="edgeStyle=orthogonalEdgeStyle;rounded=0;orthogonalLoop=1;jettySize=auto;html=1;entryX=-0.003;entryY=0.406;entryDx=0;entryDy=0;entryPerimeter=0;" edge="1" parent="1" source="_RPkP1gwS6CLPZ-i384K-37" target="_RPkP1gwS6CLPZ-i384K-40">
          <mxGeometry relative="1" as="geometry" />
        </mxCell>
        <mxCell id="_RPkP1gwS6CLPZ-i384K-75" value="&lt;b&gt;Azure&lt;/b&gt;" style="text;html=1;strokeColor=default;fillColor=none;align=center;verticalAlign=middle;whiteSpace=wrap;rounded=0;" vertex="1" parent="1">
          <mxGeometry x="684.74" y="1320" width="80.5" height="30" as="geometry" />
        </mxCell>
      </root>
    </mxGraphModel>
  </diagram>
</mxfile>
